<svg xmlns="http://www.w3.org/2000/svg" version="1.1" xmlns:xlink="http://www.w3.org/1999/xlink" xmlns:svgjs="http://svgjs.com/svgjs" width="512" height="512" x="0" y="0" viewBox="0 0 24 24" style="enable-background:new 0 0 512 512" xml:space="preserve"><g><path xmlns="http://www.w3.org/2000/svg" d="m22.707 11.293-2-2-8-8a1 1 0 0 0 -1.414 0l-8 8-2 2a1 1 0 0 0 1.414 1.414l.293-.293v9.586a1 1 0 0 0 1 1h16a1 1 0 0 0 1-1v-9.586l.293.293a1 1 0 0 0 1.414-1.414zm-3.707 9.707h-14v-10.586l7-7 7 7z" fill="#000000" data-original="#000000"/></g></svg>